# xmcd
#
# Track frame offsets:
#	150
#	12417
#	27646
#	41804
#	67637
#	78023
#	92297
#	113575
#	133199
#	150618
#	169033
#	187653
#	199512
#	216888
#	232028
#	248405
#	257899
#	265823
#	276852
#	285646
#
# Disc length: 3953 seconds
#
# Revision: 0
# Processed by: cddbd v1.5.2PL0 Copyright (c) Steve Scherf et al.
# Submitted via: audiograbber 1.83.01
#
DISCID=060f6f14
DTITLE=Various Artist - Melodien Fuer Millionen - Doktor Schiwago - CD1
DYEAR=2011
DGENRE=Pop
TTITLE0=Maurice Jarre and The MGM Orchestra - Lara's Theme (Doktor Schiwago Haupt
TTITLE0=thema)
TTITLE1=Jean-Claude Borelly - Dolannes Melodie
TTITLE2=Nini Rosso - Il Silenzio
TTITLE3=James Last mit Gheorghe Zamfir - Einsamer Hirte (The Lonely Shepherd)
TTITLE4=Michael Hirte - Morning has broken
TTITLE5=Fleetwood Mac - Albatross
TTITLE6=Santana - Samba Pa Ti
TTITLE7=Dave Stewart and Candy Dulfer - Lily was here
TTITLE8=Robert MIles - Children
TTITLE9=Space - Magic fly
TTITLE10=Gazebo - I like Chopin
TTITLE11=Richard Clayderman - Ballade Pour Adeline
TTITLE12=Ricky King - Le Rêve
TTITLE13=Bert Kaempfert and His Orchestra - Strangers in the night
TTITLE14=Glenn Miller and His Orchestra - In the mood
TTITLE15=Boots Brown and His Blockbusters - Cerveza
TTITLE16=Les Elgart and His Orchestra - Frenesi-Twist
TTITLE17=Perez Prado and His Orchestra - Cherry Pink and Apple Blossom White
TTITLE18=Al Hirt - Java
TTITLE19=Mitch Miller and His Orchestra - March from The River Kwai and Colonel B
TTITLE19=ogey
EXTD=
EXTT0=
EXTT1=
EXTT2=
EXTT3=
EXTT4=
EXTT5=
EXTT6=
EXTT7=
EXTT8=
EXTT9=
EXTT10=
EXTT11=
EXTT12=
EXTT13=
EXTT14=
EXTT15=
EXTT16=
EXTT17=
EXTT18=
EXTT19=
PLAYORDER=
